# xmcd CD database file
#
# Track frame offsets:
#	182
#	53772
#	86192
#	190005
#
# Disc length: 3206 seconds
#
# Revision: 0
# Processed by: cddbd v1.5.2PL0 Copyright (c) Steve Scherf et al.
# Submitted via: CDex 1.51
#
DISCID=2c0c8404
DTITLE=Joe Morris - Illuminate
DYEAR=1995
DGENRE=Jazz
TTITLE0=Results
TTITLE1=Illuminate
TTITLE2=Inklings
TTITLE3=Pivotal
EXTD=YEAR: 1995
EXTT0=
EXTT1=
EXTT2=
EXTT3=
PLAYORDER=
